# xmcd CD database file generated by Grip 3.3.1
# 
# Track frame offsets:
#       150
#       22264
#       37822
#       51040
#       59416
#       74811
#       90170
#       102366
#       112944
#       138068
#       170982
#       185027
#       195079
# 
# Disc length: 2811 seconds
# 
# Revision: 3
# Processed by: cddbd v1.5.2PL0 Copyright (c) Steve Scherf et al.
# Submitted via: Grip 3.3.1
# 
DISCID=b00af90d
DTITLE=Various Artist - Best Of Blues [CD2)
DYEAR=2004
DGENRE=Blues
TTITLE0=Joe Turner - Wee Baby Blues
TTITLE1=Eddie "Clean Head" Vinson - I'm The Midnight Creeper
TTITLE2=Dinah Washington - Rich Man's Blues
TTITLE3=Big Joe Williams - Baby, Please Don't Go
TTITLE4=Gatemouth Moore - Somebody Got To Go
TTITLE5=Amos Milbourne - So Tired
TTITLE6=Amos Milbourne - C.C. Rider
TTITLE7=Billie Holiday - Lover Come Back To Me
TTITLE8=Roy Brown - Boogie Woogie Blues
TTITLE9=Canned Heat - Bullfrog Blues
TTITLE10=Pee Wee Crayton - Blues In The Ghetto
TTITLE11=Dr. John - Woman Is The Root Of All Evil
TTITLE12=Screamin' Jay Hawkins - I Put A Spell On You
EXTD=
EXTT0=
EXTT1=
EXTT2=
EXTT3=
EXTT4=
EXTT5=
EXTT6=
EXTT7=
EXTT8=
EXTT9=
EXTT10=
EXTT11=
EXTT12=
PLAYORDER=
